# xmcd
#
# Track frame offsets:
#	150
#	11982
#	22166
#	37709
#	48321
#	63074
#	76382
#	86981
#	105901
#	119554
#	129075
#	144247
#	156644
#	170137
#	182998
#
# Disc length: 2607 seconds
# Revision: 0
# Processed by: cddbd v1.5.2PL0 Copyright (c) Steve Scherf et al.
# Submitted via: dBpowerAMP V12.0
#
DISCID=c70a2d0f
DTITLE=Bill Hearne - Where Lights Are Low
DYEAR=2018
DGENRE=Country
TTITLE0=Excuse Me, (I Think I've Got a Heartache)
TTITLE1=You're For Me
TTITLE2=Too Much Love is Spoiling You
TTITLE3=Hello Trouble
TTITLE4=We're the Kind of People That Make the Jukebox Play
TTITLE5=The Twenty-Fourth Hour
TTITLE6=Gonna Have Love
TTITLE7=I Never Go Around Mirrors
TTITLE8=I Made the Prison Band
TTITLE9=Second Fiddle
TTITLE10=When Did Right Become Wrong
TTITLE11=That's Why I Sing in a Honky Tonk
TTITLE12=Hang Your Head in Shame
TTITLE13=You Done Me Wrong
TTITLE14=Down on the Corner of Love
EXTD=
EXTT0=
EXTT1=
EXTT2=
EXTT3=
EXTT4=
EXTT5=
EXTT6=
EXTT7=
EXTT8=
EXTT9=
EXTT10=
EXTT11=
EXTT12=
EXTT13=
EXTT14=
PLAYORDER=
